<svg class="w-6 h-6" width="24" height="24" viewBox="0 0 24 24" fill="none" xmlns="http://www.w3.org/2000/svg"><path d="M11 13V1.99997L11.0078 1.87107C11.0463 1.57489 11.2167 1.30877 11.4746 1.14939C11.7694 0.967307 12.1374 0.950486 12.4473 1.10544L20.4473 5.10544L20.5684 5.17673C20.8363 5.36166 21 5.66852 21 5.99997C21 6.37875 20.786 6.72511 20.4473 6.89451L13 10.6181V13C13 13.5523 12.5523 14 12 14C11.4477 14 11 13.5523 11 13ZM13 8.38181L17.7637 5.99997L13 3.61814V8.38181Z" fill="#686583" style="fill-opacity:1;"/><path d="M7.56772 4.03547C8.06278 3.79067 8.66275 3.99354 8.90756 4.48859C9.15235 4.98362 8.94944 5.5836 8.45444 5.82843C7.08068 6.50774 5.93088 7.56731 5.14194 8.88117C4.35302 10.1952 3.95806 11.7086 4.00424 13.2405C4.05046 14.7726 4.53595 16.2596 5.40268 17.5237C6.26938 18.7876 7.48073 19.7761 8.89292 20.3714C10.3053 20.9667 11.8594 21.1434 13.3695 20.8812C14.8795 20.6189 16.2826 19.9285 17.4115 18.8919C18.5403 17.8553 19.3479 16.5158 19.7376 15.0335C20.1029 13.6439 20.0869 12.1833 19.6937 10.805L19.6097 10.5306L19.5833 10.4319C19.4763 9.93646 19.7598 9.43068 20.2523 9.27082C20.7448 9.11102 21.2716 9.3538 21.4759 9.81769L21.5121 9.91339L21.6165 10.2562C22.1081 11.9793 22.128 13.8051 21.6712 15.5423C21.184 17.3952 20.1752 19.0697 18.764 20.3655C17.3528 21.6613 15.5989 22.5241 13.7113 22.8519C11.8237 23.1797 9.88193 22.9582 8.11655 22.2142C6.35108 21.47 4.8357 20.2348 3.75229 18.6546C2.66891 17.0745 2.063 15.2161 2.00522 13.3011C1.94745 11.3861 2.44091 9.49446 3.4271 7.85187C4.41328 6.2094 5.85041 4.88466 7.56772 4.03547Z" fill="#686583" style="fill-opacity:1;"/><path d="M7.20273 9.39646C7.53436 8.95512 8.16064 8.86593 8.60215 9.19724C9.04371 9.52896 9.13309 10.1561 8.80137 10.5976C8.40053 11.1312 8.13989 11.7567 8.04258 12.417C7.94527 13.0772 8.01483 13.7513 8.24473 14.3779C8.47462 15.0045 8.85772 15.5642 9.35898 16.0049C9.86007 16.4452 10.4633 16.7536 11.1139 16.9013C11.7646 17.049 12.4423 17.0315 13.0846 16.8506C13.7268 16.6695 14.3138 16.33 14.7916 15.8642C15.2694 15.3983 15.6236 14.8202 15.8209 14.1826C15.9935 13.6246 16.0411 13.0366 15.9625 12.4599L15.9215 12.2138L15.9068 12.1123C15.8579 11.6078 16.198 11.1379 16.7057 11.0361C17.2133 10.9345 17.7078 11.2372 17.857 11.7217L17.8824 11.8203L17.9449 12.1894C18.0629 13.0545 17.99 13.9364 17.7311 14.7734C17.4352 15.7298 16.9049 16.597 16.1881 17.2959C15.4713 17.9948 14.5911 18.5037 13.6275 18.7754C12.664 19.047 11.6477 19.0731 10.6715 18.8515C9.69521 18.6299 8.78956 18.1678 8.03769 17.5068C7.28592 16.8459 6.71165 16.0071 6.3668 15.0674C6.02195 14.1275 5.9181 13.1154 6.06406 12.125C6.21008 11.1347 6.60152 10.1967 7.20273 9.39646Z" fill="#686583" style="fill-opacity:1;"/></svg>