<svg class="w-6 h-6" width="24" height="24" viewBox="0 0 24 24" fill="none" xmlns="http://www.w3.org/2000/svg"><g clip-path="url(#clip0_1_5798)"><path d="M0.99823 7.0002C0.99823 6.09869 1.35549 5.23394 1.99139 4.59492L4.59491 1.99141L4.71698 1.8752C5.34183 1.31198 6.155 0.998245 7.00018 0.998245L7.16815 1.00215C7.95258 1.04085 8.70006 1.34932 9.28339 1.8752L9.40546 1.99141L22.006 14.592L22.1213 14.7131C22.3841 15.0022 22.5961 15.3348 22.7463 15.6965C22.9178 16.1096 23.006 16.5529 23.006 17.0002L23.0021 17.1672C22.9829 17.5575 22.8965 17.9422 22.7463 18.3039C22.5749 18.7167 22.3225 19.0908 22.006 19.4064L22.007 19.4074L19.4074 22.007C19.0918 22.3235 18.7167 22.5749 18.3039 22.7463C17.9422 22.8965 17.5575 22.9829 17.1672 23.0022L17.0002 23.0061C16.5528 23.0061 16.1096 22.9178 15.6965 22.7463C15.2837 22.5749 14.9086 22.3234 14.593 22.007L1.99139 9.40547C1.35551 8.7665 0.998282 7.90166 0.99823 7.0002ZM2.99823 7.0002C2.99828 7.37228 3.14533 7.72931 3.40741 7.99336L16.008 20.5939L16.1105 20.6867C16.2168 20.7742 16.3355 20.8457 16.4631 20.8986C16.6332 20.9693 16.8159 21.0061 17.0002 21.0061L17.1379 20.9992C17.2748 20.9857 17.4097 20.9516 17.5373 20.8986C17.7073 20.828 17.8615 20.7243 17.9914 20.5939L17.9933 20.593L20.593 17.9934L20.5939 17.9914L20.6867 17.8898C20.7742 17.7836 20.8456 17.6648 20.8986 17.5373C20.9516 17.4097 20.9857 17.2749 20.9992 17.1379L21.006 17.0002C21.006 16.8159 20.9693 16.6333 20.8986 16.4631C20.828 16.293 20.7244 16.138 20.5939 16.008L7.99432 3.4084L7.89081 3.31563C7.67609 3.14055 7.41456 3.03236 7.13885 3.00508L7.00018 2.99824C6.62812 2.99824 6.27012 3.14444 6.00604 3.40645L6.00702 3.40742L3.40741 6.00703L3.40643 6.00606C3.14442 6.27014 2.99823 6.62814 2.99823 7.0002Z" fill="#686583" style="fill-opacity:1;"/><path d="M15.8691 9.72461C16.2619 9.40426 16.8409 9.42685 17.207 9.79297C17.5731 10.1591 17.5957 10.7381 17.2754 11.1309L17.207 11.207L15.207 13.207C14.8165 13.5976 14.1835 13.5976 13.793 13.207C13.4024 12.8165 13.4024 12.1835 13.793 11.793L15.793 9.79297L15.8691 9.72461Z" fill="#686583" style="fill-opacity:1;"/><path d="M12.8691 6.72461C13.2619 6.40426 13.8409 6.42685 14.207 6.79297C14.5731 7.15908 14.5957 7.73809 14.2754 8.13086L14.207 8.20703L12.207 10.207C11.8165 10.5976 11.1835 10.5976 10.793 10.207C10.4024 9.81651 10.4024 9.18349 10.793 8.79297L12.793 6.79297L12.8691 6.72461Z" fill="#686583" style="fill-opacity:1;"/><path d="M9.86913 3.72461C10.2619 3.40426 10.8409 3.42685 11.207 3.79297C11.5731 4.15908 11.5957 4.73809 11.2754 5.13086L11.207 5.20703L9.20702 7.20703C8.81649 7.59756 8.18348 7.59756 7.79295 7.20703C7.40243 6.81651 7.40243 6.18349 7.79295 5.79297L9.79295 3.79297L9.86913 3.72461Z" fill="#686583" style="fill-opacity:1;"/><path d="M18.8691 12.7246C19.2619 12.4043 19.8409 12.4269 20.207 12.793C20.5731 13.1591 20.5957 13.7381 20.2754 14.1309L20.207 14.207L18.207 16.207C17.8165 16.5976 17.1835 16.5976 16.793 16.207C16.4024 15.8165 16.4024 15.1835 16.793 14.793L18.793 12.793L18.8691 12.7246Z" fill="#686583" style="fill-opacity:1;"/></g><defs><clipPath id="clip0_1_5798"><rect width="24" height="24" fill="white" style="fill:white;fill-opacity:1;"/></clipPath></defs></svg>