<svg class="w-6 h-6" width="24" height="24" viewBox="0 0 24 24" fill="none" xmlns="http://www.w3.org/2000/svg"><path d="M8.91617 0.99214C9.44935 0.981027 9.98006 1.07667 10.4757 1.27339C10.9713 1.47011 11.4225 1.764 11.8029 2.13765C12.1833 2.51129 12.485 2.95719 12.6906 3.44917C12.8958 3.94033 13.0013 4.46768 13.0002 4.99995V18.0009C12.9994 18.6843 12.8583 19.3604 12.5861 19.9873C12.3139 20.6141 11.916 21.1784 11.4171 21.6455C10.9183 22.1125 10.3291 22.4727 9.6857 22.7031C9.04227 22.9335 8.35794 23.0296 7.67594 22.9853C6.99403 22.941 6.32806 22.7578 5.71988 22.4462C5.11174 22.1347 4.57411 21.7013 4.1398 21.1738C3.70544 20.6461 3.38343 20.0347 3.19449 19.3779C3.06536 18.9289 3.00152 18.465 3.00113 18C2.525 17.6431 2.1144 17.2038 1.79117 16.7001C1.35118 16.0146 1.08526 15.2316 1.01676 14.4199C0.948297 13.6083 1.07981 12.7924 1.39859 12.0429C1.61531 11.5334 1.91547 11.0662 2.28336 10.6572C2.11906 10.1899 2.02332 9.69987 2.00308 9.2021C1.9723 8.44412 2.11489 7.68903 2.4191 6.99409C2.72334 6.29914 3.18113 5.68195 3.75894 5.19038C4.14554 4.8615 4.57961 4.59577 5.0441 4.39839C5.0846 4.12814 5.153 3.86204 5.2482 3.60445C5.43306 3.10431 5.71576 2.64598 6.08023 2.25679C6.44479 1.86755 6.88419 1.55505 7.37125 1.33784C7.85805 1.12081 8.3833 1.00331 8.91617 0.99214ZM8.95816 2.99116C8.69165 2.99674 8.42916 3.05643 8.1857 3.16499C7.94217 3.2736 7.72247 3.42936 7.54019 3.62398C7.35794 3.81857 7.21661 4.04773 7.12418 4.2978C7.03178 4.54781 6.99026 4.81377 7.00211 5.08003C7.02321 5.5526 6.71024 5.97588 6.25211 6.0937C5.81126 6.20706 5.40155 6.41887 5.05484 6.71382C4.70823 7.00872 4.43366 7.37896 4.25113 7.79585C4.06859 8.21283 3.98266 8.66623 4.00113 9.12105C4.01964 9.57573 4.14189 10.0202 4.35758 10.4209C4.58509 10.8435 4.48003 11.3681 4.10758 11.6709C3.72825 11.979 3.42975 12.3754 3.23844 12.8251C3.04712 13.2749 2.96882 13.7649 3.00992 14.2519C3.05103 14.7389 3.21078 15.2087 3.47476 15.6201C3.73874 16.0313 4.09901 16.3721 4.52457 16.6123C4.87909 16.8124 5.07675 17.2075 5.02457 17.6113C4.97203 18.0179 5.00399 18.4311 5.11734 18.8251C5.2307 19.2191 5.42321 19.5858 5.68375 19.9023C5.94436 20.2189 6.26705 20.479 6.63199 20.666C6.99695 20.8529 7.39662 20.9627 7.80582 20.9892C8.21486 21.0157 8.62497 20.9584 9.0109 20.8203C9.39693 20.682 9.75063 20.4657 10.05 20.1855C10.3493 19.9052 10.5888 19.5665 10.7521 19.1904C10.9152 18.8147 10.9996 18.4095 11.0002 18V4.99702L10.9904 4.7978C10.9711 4.59968 10.9228 4.40504 10.8459 4.22066C10.7431 3.97463 10.5917 3.75125 10.4015 3.56441C10.2113 3.37755 9.9853 3.23015 9.73746 3.13179C9.48973 3.03354 9.22461 2.98561 8.95816 2.99116Z" fill="#686583" style="fill-opacity:1;"/><path d="M15.083 0.992133C15.6161 1.00324 16.1419 1.12071 16.6289 1.33784C17.1159 1.55504 17.5553 1.86755 17.9199 2.25678C18.2844 2.64596 18.5671 3.10431 18.7519 3.60444C18.8471 3.862 18.9146 4.12817 18.9551 4.39838C19.4198 4.59579 19.8544 4.86133 20.2412 5.19038C20.819 5.68193 21.2768 6.29917 21.581 6.99409C21.8852 7.68901 22.0278 8.44413 21.997 9.20209C21.9768 9.69996 21.8802 10.1898 21.7158 10.6572C22.0839 11.0663 22.3848 11.5333 22.6015 12.0429C22.9203 12.7924 23.0518 13.6083 22.9834 14.4199C22.9149 15.2316 22.6489 16.0146 22.209 16.7001C21.8855 17.2042 21.4746 17.644 20.998 18.0009C20.9975 18.4657 20.9337 18.9292 20.8047 19.3779C20.6157 20.0347 20.2947 20.6461 19.8603 21.1738C19.426 21.7014 18.8875 22.1347 18.2793 22.4462C17.6713 22.7576 17.0058 22.941 16.3242 22.9853C15.6422 23.0296 14.9579 22.9335 14.3144 22.7031C13.671 22.4727 13.0819 22.1125 12.583 21.6455C12.0841 21.1784 11.6863 20.6141 11.414 19.9873C11.1418 19.3604 11.0007 18.6843 11 18.0009V4.99995C10.9988 4.46767 11.1044 3.94033 11.3095 3.44916C11.5151 2.95721 11.8169 2.51127 12.1972 2.13764C12.5777 1.764 13.0288 1.47009 13.5244 1.27338C14.02 1.0767 14.5499 0.981069 15.083 0.992133ZM15.042 2.99116C14.7756 2.9856 14.5104 3.03357 14.2627 3.13178C14.0149 3.23014 13.7888 3.37757 13.5986 3.5644C13.4084 3.75125 13.2571 3.97461 13.1543 4.22065C13.0516 4.46656 12.9992 4.73054 13 4.99702V17.999L13.0039 18.1523C13.0226 18.5097 13.1052 18.8613 13.248 19.1904C13.4113 19.5663 13.65 19.9053 13.9492 20.1855C14.2485 20.4657 14.6023 20.682 14.9883 20.8203C15.3743 20.9585 15.7851 21.0158 16.1943 20.9892C16.6035 20.9626 17.0032 20.8529 17.3681 20.666C17.733 20.479 18.0558 20.2188 18.3164 19.9023C18.5769 19.5858 18.7694 19.2191 18.8828 18.8251C18.9961 18.4311 19.0281 18.0179 18.9756 17.6113C18.9234 17.2075 19.121 16.8124 19.4756 16.6123C19.9011 16.372 20.2614 16.0313 20.5254 15.6201C20.7894 15.2087 20.9491 14.7389 20.9902 14.2519C21.0313 13.7649 20.953 13.2749 20.7617 12.8251C20.5704 12.3754 20.2719 11.979 19.8926 11.6708C19.52 11.3681 19.415 10.8435 19.6426 10.4208C19.8582 10.0202 19.9795 9.57568 19.998 9.12104C20.0165 8.66623 19.9315 8.21283 19.749 7.79584C19.5665 7.37889 19.291 7.00875 18.9443 6.71381C18.6411 6.45596 18.2902 6.26111 17.9121 6.14057L17.748 6.0937C17.2899 5.97589 16.9769 5.55261 16.998 5.08002C17.0099 4.81376 16.9684 4.5478 16.876 4.2978C16.7835 4.04774 16.6422 3.81856 16.4599 3.62397C16.2777 3.42936 16.0579 3.27359 15.8144 3.16498C15.571 3.05642 15.3085 2.99675 15.042 2.99116Z" fill="#686583" style="fill-opacity:1;"/><path d="M12 8C12.531 8 12.969 8.4151 12.998 8.94531L13.0225 9.20312C13.0996 9.80099 13.3299 10.3709 13.6934 10.8555C14.0567 11.3398 14.5387 11.7205 15.0908 11.9619L15.332 12.0566L15.4268 12.0957C15.8853 12.3114 16.1151 12.8437 15.9434 13.332C15.7715 13.8203 15.2591 14.0915 14.7666 13.9727L14.668 13.9434L14.4775 13.8721C13.5311 13.4993 12.7056 12.8706 12.0937 12.0547C12.0617 12.0119 12.0307 11.9684 12 11.9248C11.9692 11.9684 11.9383 12.0119 11.9062 12.0547C11.2536 12.9249 10.3581 13.5824 9.33203 13.9434C8.81109 14.1266 8.23997 13.8529 8.05664 13.332C7.87338 12.8111 8.14707 12.24 8.66796 12.0566C9.32083 11.827 9.89133 11.4091 10.3066 10.8555C10.722 10.3017 10.9643 9.6365 11.0019 8.94531L11.0117 8.84766C11.0856 8.365 11.502 8 12 8Z" fill="#686583" style="fill-opacity:1;"/><path d="M18.0394 4.12597C18.5911 4.14886 19.0201 4.6144 18.9974 5.16601L18.9799 5.40722C18.9226 5.96752 18.7476 6.51059 18.4652 6.99999C18.1891 7.47826 17.5773 7.64221 17.099 7.3662C16.6207 7.09014 16.4568 6.47831 16.7328 5.99999C16.894 5.72055 16.985 5.40631 16.9984 5.08397L17.0082 4.98144C17.0803 4.47981 17.5222 4.10451 18.0394 4.12597Z" fill="#686583" style="fill-opacity:1;"/><path d="M5.96198 4.12597C6.4794 4.10482 6.92158 4.48054 6.99323 4.98242L7.00201 5.08398L7.02643 5.32421C7.05226 5.48269 7.09737 5.63739 7.16022 5.78515L7.26764 6.00097L7.31451 6.09179C7.5218 6.55418 7.34884 7.10767 6.90045 7.36621C6.45173 7.62471 5.88595 7.49649 5.5899 7.08496L5.53424 6.99902L5.41998 6.78613C5.20488 6.35435 5.06938 5.88714 5.02057 5.40722L5.00397 5.16601L5.00494 5.06347C5.03551 4.55761 5.44473 4.14721 5.96198 4.12597Z" fill="#686583" style="fill-opacity:1;"/><path d="M3.57661 9.62598C4.05944 9.35803 4.66792 9.53193 4.93599 10.0147C5.20395 10.4975 5.03007 11.106 4.54732 11.374C4.39276 11.4598 4.24592 11.5593 4.10884 11.6709L4.02583 11.7324C3.60254 12.0109 3.0285 11.9287 2.70161 11.5273C2.35305 11.0993 2.41736 10.4699 2.84517 10.1211L3.01997 9.98438C3.19721 9.85263 3.38338 9.73323 3.57661 9.62598Z" fill="#686583" style="fill-opacity:1;"/><path d="M19.064 10.0147C19.3153 9.5621 19.8659 9.3802 20.3315 9.58009L20.4233 9.62599L20.6138 9.73732C20.7393 9.81442 20.8617 9.8965 20.98 9.98439L21.1548 10.1211L21.231 10.1895C21.5893 10.5476 21.6251 11.126 21.2983 11.5274C20.9714 11.9287 20.3974 12.0109 19.9741 11.7324L19.8911 11.6709L19.6782 11.5127L19.4526 11.374L19.3657 11.3203C18.9497 11.0308 18.8127 10.4674 19.064 10.0147Z" fill="#686583" style="fill-opacity:1;"/><path d="M3.1619 16.9928C3.41621 16.5419 3.96811 16.3641 4.43241 16.567L4.52421 16.6129L4.69608 16.7027C5.10192 16.8983 5.54766 16.9998 5.99979 16.9996C6.55196 16.9995 6.99954 17.4474 6.99979 17.9996C7 18.5518 6.55288 18.9992 6.00077 18.9996C5.24717 19 4.50435 18.8304 3.82792 18.5045L3.54179 18.3551L3.45487 18.3004C3.04097 18.008 2.90764 17.4437 3.1619 16.9928Z" fill="#686583" style="fill-opacity:1;"/><path d="M19.5674 16.567C20.0317 16.364 20.5835 16.5419 20.8379 16.9928C21.0923 17.4437 20.959 18.0081 20.5449 18.3004L20.458 18.3551C19.7079 18.7781 18.8612 18.9999 18 18.9996C17.4477 18.9994 16.9998 18.5519 17 17.9996C17.0003 17.4475 17.4479 16.9996 18 16.9996C18.5169 16.9999 19.0254 16.8668 19.4756 16.6129L19.5674 16.567Z" fill="#686583" style="fill-opacity:1;"/></svg>