<svg class="w-6 h-6" width="24" height="24" viewBox="0 0 24 24" fill="none" xmlns="http://www.w3.org/2000/svg"><path d="M21 8.5C21 7.30653 20.5256 6.16227 19.6816 5.31836C18.8377 4.47445 17.6935 4 16.5 4C15.7202 4 15.1131 4.10999 14.5518 4.35449C13.984 4.60181 13.4 5.01407 12.707 5.70703C12.3165 6.09756 11.6835 6.09756 11.293 5.70703C10.6 5.01407 10.016 4.60181 9.44824 4.35449C8.88687 4.10999 8.27982 4 7.5 4C6.30653 4 5.16227 4.47445 4.31836 5.31836C3.47445 6.16227 3 7.30653 3 8.5C3 10.116 3.91951 11.4583 5.15039 12.7363L12 19.5859L18.2998 13.2861L18.8447 12.7354C20.0754 11.446 21 10.1064 21 8.5ZM23 8.5C23 11.2396 21.1925 13.2488 19.7061 14.7061L19.707 14.707L12.707 21.707C12.3165 22.0976 11.6835 22.0976 11.293 21.707L4.30469 14.7188L3.73047 14.1465C2.37747 12.749 1 10.9088 1 8.5C1 6.77609 1.68433 5.12231 2.90332 3.90332C4.12231 2.68433 5.77609 2 7.5 2C8.48018 2 9.37344 2.14001 10.2471 2.52051C10.8603 2.78761 11.4318 3.16121 12 3.6416C12.5682 3.16121 13.1397 2.78761 13.7529 2.52051C14.6266 2.14001 15.5198 2 16.5 2C18.2239 2 19.8777 2.68433 21.0967 3.90332C22.3157 5.12231 23 6.77609 23 8.5Z" fill="#686583" style="fill-opacity:1;"/></svg>