<svg class="w-6 h-6" width="24" height="24" viewBox="0 0 24 24" fill="none" xmlns="http://www.w3.org/2000/svg"><path d="M11.4906 6.10158C15.4557 6.16476 19.2833 7.56935 22.348 10.086L22.6518 10.3418L22.726 10.4121C23.0751 10.7797 23.0958 11.3593 22.7582 11.752C22.4207 12.1445 21.8448 12.2108 21.4291 11.9209L21.348 11.8584L21.0785 11.6319C18.363 9.40203 14.9717 8.15749 11.4584 8.10158L11.1068 8.09962L11.0043 8.09572C10.4998 8.04784 10.1035 7.62418 10.1 7.10646C10.0964 6.55434 10.541 6.1034 11.0932 6.09962L11.4906 6.10158Z" fill="#686583" style="fill-opacity:1;"/><path d="M11.2629 11.3242C11.605 10.9503 12.1815 10.8884 12.5969 11.1973C13.04 11.5269 13.1317 12.1536 12.802 12.5967L12.5901 12.874C11.5132 14.2465 10.1816 15.4002 8.66725 16.2705C7.05209 17.1987 5.26355 17.7857 3.41236 17.9941C2.86368 18.0559 2.36789 17.6609 2.30592 17.1123C2.24417 16.5636 2.63915 16.0678 3.18776 16.0059C4.76692 15.8281 6.29335 15.328 7.67115 14.5361C9.04876 13.7444 10.2491 12.6781 11.1975 11.4033L11.2629 11.3242Z" fill="#686583" style="fill-opacity:1;"/><path d="M15.929 13.1078C16.2006 12.627 16.8114 12.4572 17.2922 12.7289C17.7731 13.0006 17.9428 13.6114 17.6711 14.0922C15.6318 17.7017 12.3823 20.4685 8.50415 21.9096L8.1272 22.0453C7.60531 22.2258 7.03533 21.949 6.85474 21.4272C6.67425 20.9053 6.95108 20.3353 7.4729 20.1547L7.80786 20.0346C11.2439 18.7577 14.1221 16.3059 15.929 13.1078Z" fill="#686583" style="fill-opacity:1;"/><path d="M11.1161 1.53125C11.3531 1.08314 11.8961 0.878608 12.3759 1.07325C12.8557 1.26792 13.1021 1.79274 12.9599 2.2793L12.9267 2.37598C11.7949 5.16572 11.7277 8.2671 12.7255 11.0938C14.3546 11.3621 15.9239 11.9208 17.3583 12.7451C18.8694 13.6135 20.2018 14.7594 21.2851 16.1221L21.498 16.3975L21.5556 16.4824C21.8184 16.9157 21.7156 17.4859 21.3026 17.7979C20.8894 18.1097 20.3123 18.0523 19.9677 17.6807L19.9013 17.6025L19.7196 17.3672C18.7933 16.2019 17.6544 15.2212 16.3622 14.4785C14.9841 13.6865 13.46 13.1817 11.8817 12.9932C11.5655 12.9554 11.2887 12.7697 11.1327 12.4981L11.0731 12.376C9.67451 8.92849 9.67451 5.07152 11.0731 1.62403L11.1161 1.53125Z" fill="#686583" style="fill-opacity:1;"/><path d="M5.34406 3.50605C5.49243 3.02143 5.98666 2.71883 6.49445 2.81953C7.00233 2.92043 7.34431 3.38913 7.29621 3.89375L7.28058 3.99531C6.56878 7.57865 7.14204 11.2944 8.89289 14.4924L9.06574 14.8L9.11261 14.8908C9.32055 15.3531 9.14879 15.9072 8.7005 16.1662C8.25216 16.4251 7.68646 16.2969 7.38996 15.8859L7.33429 15.8L7.13898 15.4523C5.16293 11.8429 4.51614 7.649 5.31964 3.60468L5.34406 3.50605Z" fill="#686583" style="fill-opacity:1;"/><path d="M21 12C21 7.02944 16.9706 3 12 3C7.02944 3 3 7.02944 3 12C3 16.9706 7.02944 21 12 21C16.9706 21 21 16.9706 21 12ZM23 12C23 18.0751 18.0751 23 12 23C5.92487 23 1 18.0751 1 12C1 5.92487 5.92487 1 12 1C18.0751 1 23 5.92487 23 12Z" fill="#686583" style="fill-opacity:1;"/></svg>