<svg class="w-6 h-6" width="24" height="24" viewBox="0 0 24 24" fill="none" xmlns="http://www.w3.org/2000/svg"><path d="M9.00034 5.5C9.00034 4.74769 8.85652 4.07212 8.59019 3.62109C8.35769 3.22741 8.04163 3.00009 7.50034 3C6.41936 3 5.58527 3.56869 4.97398 4.52051C4.42658 5.37285 4.10152 6.48084 4.01987 7.55371L4.00034 8.01074V8.01172C3.98724 9.10357 4.19941 9.85934 4.44468 10.6592C4.69309 11.4693 5.00034 12.388 5.00034 13.6201V16L5.00523 16.0986C5.02792 16.3276 5.12918 16.5429 5.29331 16.707C5.48083 16.8945 5.73521 17 6.00034 17C6.26544 16.9999 6.51992 16.8945 6.70737 16.707C6.87143 16.5429 6.97278 16.3276 6.99546 16.0986L7.00034 16V14.1797C7.00041 12.468 7.56853 10.9122 8.05796 9.53809C8.5659 8.11204 9.00034 6.85579 9.00034 5.5ZM11.0003 5.5C11.0003 7.2541 10.4338 8.82762 9.94175 10.209C9.43125 11.6422 9.00041 12.8716 9.00034 14.1797V16L8.98569 16.2969C8.91745 16.9834 8.61354 17.6289 8.12144 18.1211C7.55891 18.6836 6.79587 18.9999 6.00034 19C5.20469 19 4.44088 18.6837 3.87827 18.1211C3.38627 17.6289 3.08324 16.9834 3.01499 16.2969L3.00034 16V13.6201C3.00034 12.7323 2.79161 12.0908 2.53257 11.2461C2.27037 10.3911 1.98349 9.3962 2.00034 7.98828C2.01714 6.47649 2.42719 4.785 3.29136 3.43945C4.17007 2.07138 5.57144 1 7.50034 1C8.82841 1.00011 9.76191 1.67264 10.3119 2.60352C10.828 3.47749 11.0003 4.55234 11.0003 5.5Z" fill="#686583" style="fill-opacity:1;"/><path d="M15 20V18.1797C14.9999 16.8716 14.5681 15.6422 14.0576 14.209C13.5656 12.8277 13 11.254 13 9.5C13 8.55234 13.1714 7.47749 13.6875 6.60352C14.2375 5.67242 15.1716 5 16.5 5C18.429 5 19.8303 6.07131 20.709 7.43945C21.5731 8.785 21.9832 10.4765 22 11.9883L21.9922 12.4971C21.9449 13.6425 21.6972 14.4979 21.4678 15.2461C21.2087 16.0909 21 16.7323 21 17.6201V20C21 20.7957 20.6837 21.5585 20.1211 22.1211C19.5585 22.6837 18.7957 23 18 23C17.2043 23 16.4415 22.6837 15.8789 22.1211C15.3867 21.6289 15.0829 20.9835 15.0146 20.2969L15 20ZM15 9.5C15 10.8558 15.4344 12.112 15.9424 13.5381C16.4318 14.9122 16.9999 16.468 17 18.1797V20L17.0049 20.0986C17.0276 20.3276 17.1288 20.5429 17.293 20.707C17.4805 20.8946 17.7348 21 18 21C18.2652 21 18.5195 20.8946 18.707 20.707C18.8946 20.5195 19 20.2652 19 20V17.6201C19 16.388 19.3073 15.4693 19.5557 14.6592C19.8009 13.8594 20.0131 13.1035 20 12.0117V12.0107C19.9866 10.8029 19.6519 9.49466 19.0264 8.52051C18.4151 7.56869 17.581 7 16.5 7C15.9585 7 15.6427 7.22738 15.4102 7.62109C15.1438 8.07212 15 8.74766 15 9.5Z" fill="#686583" style="fill-opacity:1;"/><path d="M20 16C20.5523 16 21 16.4477 21 17C21 17.5523 20.5523 18 20 18H16C15.4477 18 15 17.5523 15 17C15 16.4477 15.4477 16 16 16H20Z" fill="#686583" style="fill-opacity:1;"/><path d="M8 12C8.55228 12 9 12.4477 9 13C9 13.5523 8.55228 14 8 14H4C3.44772 14 3 13.5523 3 13C3 12.4477 3.44772 12 4 12H8Z" fill="#686583" style="fill-opacity:1;"/></svg>