<svg class="w-6 h-6" width="24" height="24" viewBox="0 0 24 24" fill="none" xmlns="http://www.w3.org/2000/svg"><path d="M18 9V6C18 5.73478 17.8946 5.48051 17.707 5.29297C17.5429 5.12883 17.3276 5.02757 17.0986 5.00488L17 5H7C6.73478 5 6.48051 5.10543 6.29297 5.29297C6.10543 5.48051 6 5.73478 6 6V9C6 9.55228 5.55228 10 5 10C4.44772 10 4 9.55228 4 9V6C4 5.20435 4.3163 4.44152 4.87891 3.87891C5.44152 3.3163 6.20435 3 7 3H17L17.2969 3.01465C17.9835 3.08291 18.6289 3.38671 19.1211 3.87891C19.6837 4.44152 20 5.20435 20 6V9C20 9.55228 19.5523 10 19 10C18.4477 10 18 9.55228 18 9Z" fill="#686583" style="fill-opacity:1;"/><path d="M18 12.5C18 12.8978 17.8419 13.2792 17.5605 13.5605C17.2792 13.8419 16.8978 14 16.5 14H7.5C7.10218 14 6.72076 13.8419 6.43945 13.5605C6.15815 13.2792 6 12.8978 6 12.5V11C6 10.7348 5.89457 10.4805 5.70703 10.293C5.51949 10.1054 5.26522 10 5 10C4.73478 10 4.48051 10.1054 4.29297 10.293C4.10543 10.4805 4 10.7348 4 11V16L4.00488 16.0986C4.02757 16.3276 4.12883 16.5429 4.29297 16.707C4.48051 16.8946 4.73478 17 5 17H19C19.2652 17 19.5195 16.8946 19.707 16.707C19.8946 16.5195 20 16.2652 20 16V11C20 10.7348 19.8946 10.4805 19.707 10.293C19.5195 10.1054 19.2652 10 19 10C18.7348 10 18.4805 10.1054 18.293 10.293C18.1054 10.4805 18 10.7348 18 11V12.5ZM22 16C22 16.7957 21.6837 17.5585 21.1211 18.1211C20.5585 18.6837 19.7957 19 19 19H5C4.20435 19 3.44152 18.6837 2.87891 18.1211C2.38671 17.6289 2.08291 16.9835 2.01465 16.2969L2 16V11C2 10.2044 2.3163 9.44152 2.87891 8.87891C3.44152 8.3163 4.20435 8 5 8C5.79565 8 6.55848 8.3163 7.12109 8.87891C7.6837 9.44152 8 10.2044 8 11V12H16V11C16 10.2043 16.3163 9.44151 16.8789 8.87891C17.4415 8.3163 18.2043 8 19 8C19.7957 8 20.5585 8.3163 21.1211 8.87891C21.6837 9.44151 22 10.2043 22 11V16Z" fill="#686583" style="fill-opacity:1;"/><path d="M4 20V18C4 17.4477 4.44772 17 5 17C5.55228 17 6 17.4477 6 18V20C6 20.5523 5.55228 21 5 21C4.44772 21 4 20.5523 4 20Z" fill="#686583" style="fill-opacity:1;"/><path d="M18 20V18C18 17.4477 18.4477 17 19 17C19.5523 17 20 17.4477 20 18V20C20 20.5523 19.5523 21 19 21C18.4477 21 18 20.5523 18 20Z" fill="#686583" style="fill-opacity:1;"/></svg>