<svg class="w-6 h-6" width="24" height="24" viewBox="0 0 24 24" fill="none" xmlns="http://www.w3.org/2000/svg"><path d="M17.8909 2L18.0998 2.01074C18.308 2.03275 18.5123 2.08726 18.7043 2.17285C18.9601 2.28691 19.1889 2.45393 19.3762 2.66211C19.5637 2.87049 19.7057 3.11621 19.7922 3.38281C19.8571 3.58285 19.89 3.79154 19.8899 4.00098L19.8782 4.20996L18.1848 20.3145V20.3154C18.1069 21.0526 17.7584 21.7348 17.2073 22.2305C16.6563 22.726 15.9414 22.9992 15.2004 22.999V23H8.80004V22.999C8.05803 23.0018 7.34132 22.7303 6.78832 22.2354C6.23407 21.7393 5.8841 21.0551 5.8059 20.3154V20.3145L4.12133 4.20801C4.09221 3.92959 4.12173 3.64807 4.20824 3.38184C4.29483 3.11556 4.43693 2.87022 4.62426 2.66211C4.81161 2.45402 5.04039 2.28685 5.29613 2.17285C5.55197 2.05885 5.82952 2.00016 6.10961 2H17.8909ZM6.11058 4L7.79418 20.1055L7.80883 20.1963C7.85111 20.4075 7.96057 20.6004 8.1223 20.7451C8.307 20.9104 8.54635 21.0013 8.79418 21H15.2004C15.4475 21.0001 15.6857 20.9084 15.8694 20.7432C16.053 20.578 16.1695 20.3511 16.1955 20.1055L17.8899 4H6.11058Z" fill="#686583" style="fill-opacity:1;"/><path d="M8.99999 10C10.2981 10 11.5611 10.4213 12.5996 11.2002C13.292 11.7195 14.1345 12 15 12C15.8655 12 16.708 11.7195 17.4004 11.2002C17.8422 10.869 18.4685 10.9586 18.7998 11.4004C19.131 11.8422 19.0414 12.4685 18.5996 12.7998C17.5611 13.5787 16.2981 14 15 14C13.7018 14 12.4389 13.5787 11.4004 12.7998C10.708 12.2805 9.86547 12 8.99999 12C8.13451 12 7.29199 12.2805 6.5996 12.7998C6.15778 13.131 5.53152 13.0414 5.20019 12.5996C4.86896 12.1578 4.95861 11.5315 5.40038 11.2002C6.43893 10.4213 7.70184 10 8.99999 10Z" fill="#686583" style="fill-opacity:1;"/></svg>