<svg class="w-6 h-6" width="24" height="24" viewBox="0 0 24 24" fill="none" xmlns="http://www.w3.org/2000/svg"><path d="M11 12V2C11 1.44772 11.4477 1 12 1C12.5523 1 13 1.44772 13 2V12C13 12.5523 12.5523 13 12 13C11.4477 13 11 12.5523 11 12Z" fill="#686583" style="fill-opacity:1;"/><path d="M17.693 5.89298C18.0592 5.52696 18.6382 5.50427 19.0309 5.82462L19.1071 5.89298L19.3639 6.15958C20.6202 7.51293 21.4791 9.18974 21.8415 11.0053C22.228 12.942 22.0321 14.9501 21.279 16.7758C20.5259 18.6015 19.2496 20.164 17.61 21.2651C15.9704 22.3661 14.0411 22.9561 12.0661 22.9623C10.0912 22.9685 8.15882 22.3899 6.51238 21.2992C4.86591 20.2085 3.57867 18.6544 2.81414 16.8334C2.04979 15.0125 1.84211 13.0058 2.21649 11.0668C2.59093 9.12777 3.53124 7.34333 4.91863 5.9379C5.30663 5.54488 5.93966 5.54016 6.3327 5.92814C6.7257 6.3161 6.72938 6.94916 6.34149 7.3422C5.23162 8.46647 4.47995 9.89459 4.18035 11.4457C3.88083 12.9971 4.04725 14.6032 4.65887 16.06C5.27051 17.5166 6.29981 18.7597 7.61688 19.6322C8.93401 20.5047 10.4803 20.9673 12.0602 20.9623C13.6401 20.9573 15.1832 20.4847 16.4948 19.6039C17.8064 18.7231 18.8279 17.4736 19.4304 16.0131C20.0328 14.5525 20.1898 12.9462 19.8805 11.3969C19.5906 9.94432 18.9033 8.60268 17.8981 7.51994L17.693 7.30705L17.6237 7.23087C17.3037 6.83807 17.327 6.25895 17.693 5.89298Z" fill="#686583" style="fill-opacity:1;"/></svg>