<svg class="w-6 h-6" width="24" height="24" viewBox="0 0 24 24" fill="none" xmlns="http://www.w3.org/2000/svg"><path d="M14 10C14 9.73478 13.8945 9.48051 13.707 9.29297C13.5428 9.12883 13.3276 9.02757 13.0986 9.00488L13 9H9.99996C9.70849 9 9.5485 9.06982 9.46285 9.13672L9.40035 9.2002C9.36832 9.24291 9.33233 9.28325 9.2939 9.32031L3.69429 14.7197C3.29679 15.103 2.66361 15.0917 2.28023 14.6943C1.89692 14.2968 1.90822 13.6636 2.30562 13.2803L7.86226 7.92188C8.40651 7.25615 9.2186 7 9.99996 7H13L13.2968 7.01465C13.9835 7.08291 14.6289 7.38671 15.1211 7.87891C15.6837 8.44151 16 9.20435 16 10C16 10.7957 15.6837 11.5585 15.1211 12.1211C14.5584 12.6837 13.7956 13 13 13H11C10.4477 13 9.99996 12.5523 9.99996 12C9.99996 11.4477 10.4477 11 11 11H13C13.2652 11 13.5195 10.8946 13.707 10.707C13.8945 10.5195 14 10.2652 14 10Z" fill="#686583" style="fill-opacity:1;"/><path d="M20.1093 5.94406C20.9052 5.96655 21.6602 6.30486 22.207 6.88351C22.7536 7.46213 23.0478 8.2343 23.0253 9.02999C23.0029 9.82389 22.6659 10.5753 22.0898 11.1218L22.0908 11.1228L17.5136 15.4997C16.6005 16.517 15.3286 16.9997 14 16.9997H9.99996C9.70864 16.9997 9.54853 17.0696 9.46285 17.1364L9.40035 17.1999C9.3587 17.2554 9.31097 17.3065 9.25875 17.3523L7.65816 18.7527C7.24254 19.1161 6.61066 19.0744 6.24703 18.6589C5.88335 18.2433 5.92612 17.6114 6.34176 17.2478L7.87886 15.9011C8.42295 15.2506 9.22667 14.9997 9.99996 14.9997H14C14.853 14.9997 15.5634 14.695 16.0478 14.1413L16.1084 14.0769L20.7089 9.67746L20.7128 9.67355L20.7822 9.60128C20.933 9.42727 21.0197 9.20556 21.0263 8.97335C21.0338 8.70774 20.9354 8.44969 20.7529 8.25656C20.5705 8.06369 20.319 7.95068 20.0537 7.94308C19.8213 7.93651 19.5944 8.01113 19.4121 8.15206L19.33 8.22238L15.1308 12.1228L15.0517 12.1882C14.6474 12.4938 14.0691 12.4495 13.7168 12.07C13.3414 11.6653 13.3649 11.0326 13.7695 10.6569L17.9628 6.76437V6.76339C18.5414 6.21666 19.3137 5.92168 20.1093 5.94406Z" fill="#686583" style="fill-opacity:1;"/><path d="M1.29298 12.293C1.65909 11.9269 2.2381 11.9043 2.63087 12.2246L2.70704 12.293L8.70704 18.293L8.7754 18.3692C9.09575 18.7619 9.07316 19.3409 8.70704 19.707C8.34092 20.0732 7.76192 20.0958 7.36915 19.7754L7.29298 19.707L1.29298 13.707L1.22462 13.6309C0.904269 13.2381 0.926863 12.6591 1.29298 12.293Z" fill="#686583" style="fill-opacity:1;"/></svg>