<svg class="w-6 h-6" width="24" height="24" viewBox="0 0 24 24" fill="none" xmlns="http://www.w3.org/2000/svg"><path d="M8.61149 1.54958C11.0142 0.776966 13.6095 0.854347 15.9621 1.76833C16.4768 1.96837 16.7324 2.54752 16.5324 3.06227C16.3324 3.57704 15.7522 3.83257 15.2375 3.63258C13.3127 2.88488 11.1895 2.82087 9.22379 3.4529C7.25787 4.0851 5.56881 5.37463 4.44059 7.10426C3.31238 8.83391 2.81373 10.8989 3.0275 12.9529C3.2413 15.0069 4.15418 16.9253 5.61442 18.3855C7.07466 19.8458 8.99304 20.7586 11.047 20.9724C13.101 21.1862 15.166 20.6876 16.8957 19.5593C18.6253 18.4311 19.9148 16.7421 20.547 14.7761C21.1395 12.9334 21.1208 10.9521 20.5002 9.12575L20.3683 8.76247L20.3361 8.66481C20.2012 8.17625 20.4551 7.65506 20.9377 7.46754C21.4202 7.28006 21.9602 7.49269 22.1906 7.94411L22.2326 8.03786L22.3937 8.48219C23.1523 10.7145 23.1746 13.136 22.4504 15.3884C21.6777 17.7911 20.1023 19.8552 17.9884 21.2341C15.8744 22.6131 13.3504 23.223 10.84 22.9617C8.32957 22.7004 5.98509 21.5843 4.20036 19.7996C2.41562 18.0148 1.29955 15.6704 1.03825 13.1599C0.776965 10.6495 1.38687 8.1255 2.76579 6.01149C4.14472 3.8976 6.20878 2.32224 8.61149 1.54958Z" fill="#686583" style="fill-opacity:1;"/><path d="M13 12C13 11.4477 12.5523 11 12 11C11.4477 11 11 11.4477 11 12C11 12.5523 11.4477 13 12 13C12.5523 13 13 12.5523 13 12ZM15 12C15 13.6569 13.6569 15 12 15C10.3431 15 9 13.6569 9 12C9 10.3431 10.3431 9 12 9C13.6569 9 15 10.3431 15 12Z" fill="#686583" style="fill-opacity:1;"/><path d="M18.3687 4.22464C18.7614 3.90414 19.3404 3.92699 19.7066 4.293C20.0726 4.65902 20.0961 5.23812 19.7759 5.63089L19.7066 5.70706L14.107 11.3067C13.7165 11.6972 13.0835 11.6972 12.6929 11.3067C12.3026 10.9161 12.3025 10.2831 12.6929 9.89261L18.2926 4.293L18.3687 4.22464Z" fill="#686583" style="fill-opacity:1;"/></svg>